<?xml version="1.0" encoding="UTF-8" standalone="no"?>
<!DOCTYPE svg PUBLIC "-//W3C//DTD SVG 1.1//EN" "http://www.w3.org/Graphics/SVG/1.1/DTD/svg11.dtd">
<svg width="100%" height="100%" viewBox="0 0 3938 3938" version="1.1" xmlns="http://www.w3.org/2000/svg" xmlns:xlink="http://www.w3.org/1999/xlink" xml:space="preserve" xmlns:serif="http://www.serif.com/" style="fill-rule:evenodd;clip-rule:evenodd;stroke-linejoin:round;stroke-miterlimit:2;">
    <g transform="matrix(1,0,0,1,27.8601,385.967)">
        <g>
            <path d="M1222.04,1165.75C1167.55,1173.1 1124.08,1200.04 1091.63,1247.79L1351.22,1659.22L1481.02,1577.18C1385.51,1424.73 1318.16,1318.2 1222.04,1165.75Z" style="fill:white;"/>
            <path d="M1134.49,1170.04C1159.59,1154.12 1187.75,1144.32 1218.37,1140.04L1234.9,1137.59L1517.14,1585.14L1342.65,1695.34L1061.02,1247.18L1070.2,1233.1C1087.96,1206.77 1110,1185.34 1134.49,1170.04ZM1209.18,1194.53C1192.04,1198.2 1176.12,1204.94 1162.04,1213.51C1147.96,1222.69 1134.49,1234.32 1122.86,1249.02L1359.18,1623.71L1445.51,1569.22L1209.18,1194.53Z" style="fill-rule:nonzero;"/>
            <path d="M1260,1225.75C1205.51,1233.71 1162.04,1260.65 1129.59,1307.79L1091.63,1247.79C1124.08,1200.04 1167.55,1173.1 1222.04,1165.75C1234.9,1185.96 1247.14,1206.16 1260,1225.75Z" style="fill:white;"/>
            <path d="M1172.45,1230.04C1187.14,1220.85 1202.45,1214.12 1218.37,1208.61L1209.18,1194.53C1192.04,1198.2 1176.12,1204.94 1162.04,1213.51C1147.96,1222.69 1134.49,1234.32 1122.86,1249.02L1132.04,1263.71C1144.29,1250.24 1157.75,1239.22 1172.45,1230.04ZM1263.67,1251.47C1239.8,1255.14 1218.37,1262.49 1200,1274.12C1181.63,1285.75 1165.1,1301.67 1151.02,1322.49L1128.98,1355.55L1061.02,1247.18L1070.2,1233.1C1087.96,1206.77 1110,1185.34 1134.49,1170.04C1159.59,1154.12 1187.75,1144.32 1218.37,1140.04L1234.9,1137.59L1302.86,1245.96L1263.67,1251.47Z" style="fill-rule:nonzero;"/>
            <path d="M1140.61,1301.06L1241.63,1342.08L1248.98,1233.1L1140.61,1301.06Z"/>
            <path d="M1185.92,1372.69L1286.94,1413.1L1293.67,1304.73L1185.92,1372.69Z"/>
            <path d="M1227.55,1439.43L1329.18,1479.83L1335.92,1370.85L1227.55,1439.43Z"/>
            <path d="M1272.86,1510.45L1373.88,1551.47L1381.22,1442.49L1272.86,1510.45Z"/>
            <path d="M1312.65,1574.12L1414.29,1615.14L1421.02,1506.16L1312.65,1574.12Z"/>
            <path d="M1286.94,1669.63L1539.8,1509.83L1599.8,1604.73L1324.9,1778L1264.9,1683.1L1286.94,1669.63ZM1523.88,1580.85L1335.92,1699.02L1340.82,1706.98L1528.16,1588.81L1523.88,1580.85Z" style="fill-rule:nonzero;"/>
            <path d="M2625.31,1165.75C2679.8,1173.1 2723.27,1200.04 2755.71,1247.79L2496.12,1659.22L2366.33,1577.18C2462.45,1424.73 2529.18,1318.2 2625.31,1165.75Z" style="fill:white;"/>
            <path d="M2685.31,1213.51C2671.22,1204.94 2655.31,1198.2 2638.16,1194.53L2401.84,1569.22L2488.16,1623.71L2724.49,1249.02C2712.86,1234.32 2699.39,1222.69 2685.31,1213.51ZM2628.98,1140.04C2659.59,1144.32 2687.75,1154.12 2712.86,1170.04C2737.35,1185.34 2759.39,1206.77 2777.14,1233.1L2786.33,1247.18L2504.69,1695.34L2330.2,1585.14L2612.45,1137.59L2628.98,1140.04Z" style="fill-rule:nonzero;"/>
            <path d="M2587.35,1225.75C2641.84,1233.71 2685.31,1260.65 2717.75,1307.79L2755.71,1247.79C2723.27,1200.04 2679.8,1173.1 2625.31,1165.75C2613.06,1185.96 2600.2,1206.16 2587.35,1225.75Z" style="fill:white;"/>
            <path d="M2647.35,1274.12C2628.98,1262.49 2607.55,1255.14 2583.67,1251.47L2544.49,1245.96L2612.45,1137.59L2628.98,1140.04C2659.59,1144.32 2687.75,1154.12 2712.86,1170.04C2737.35,1185.34 2759.39,1206.77 2777.14,1233.1L2786.33,1247.18L2718.37,1355.55L2696.33,1322.49C2682.24,1301.67 2665.71,1285.75 2647.35,1274.12ZM2628.98,1208.61C2644.9,1214.12 2660.2,1220.85 2674.9,1230.04C2689.59,1239.22 2703.06,1250.24 2715.31,1263.71L2724.49,1249.02C2712.86,1234.32 2699.39,1222.69 2685.31,1213.51C2671.22,1204.94 2655.31,1198.2 2638.16,1194.53L2628.98,1208.61Z" style="fill-rule:nonzero;"/>
            <path d="M2706.73,1301.06L2605.71,1342.08L2598.37,1233.1L2706.73,1301.06Z"/>
            <path d="M2661.43,1372.69L2560.41,1413.1L2553.67,1304.73L2661.43,1372.69Z"/>
            <path d="M2619.8,1439.43L2518.16,1479.83L2511.43,1370.85L2619.8,1439.43Z"/>
            <path d="M2574.49,1510.45L2473.47,1551.47L2466.73,1442.49L2574.49,1510.45Z"/>
            <path d="M2534.69,1574.12L2433.67,1615.14L2426.33,1506.16L2534.69,1574.12Z"/>
            <path d="M2511.43,1699.02L2323.47,1580.85L2319.18,1588.81L2506.53,1706.98L2511.43,1699.02ZM2329.59,1523.92L2582.45,1683.1L2522.45,1778L2247.55,1604.73L2307.55,1509.83L2329.59,1523.92Z" style="fill-rule:nonzero;"/>
            <path d="M2783.27,1885.14C2517.55,2191.26 2285.51,2436.16 1939.59,2522.49C1496.94,2384.12 1350.61,2194.32 1095.92,1901.06L1350,1706.98C1481.63,1965.96 1848.98,2142.9 1848.98,2142.9C1624.29,1885.14 1484.08,1654.32 1484.08,1654.32L1658.57,1549.02L1922.45,1478L1921.84,1471.87L1933.47,1474.94L1945.1,1471.87L1945.1,1478L2208.37,1549.02L2383.47,1654.32C2383.47,1654.32 2066.33,2245.75 1742.45,2378C2071.22,2355.34 2399.39,1860.65 2472.86,1673.3L2783.27,1885.14Z" style="fill:white;"/>
            <path d="M1848.98,2142.9C1624.29,1885.14 1484.08,1654.32 1484.08,1654.32L1658.57,1549.02L1922.45,1478L1921.84,1471.87L1933.47,1474.94L1945.1,1471.87L1945.1,1478L2208.37,1549.02L2383.47,1654.32C2383.47,1654.32 2066.33,2245.75 1742.45,2378C2071.22,2355.34 2399.39,1860.65 2472.86,1673.3L2783.27,1885.14C2517.55,2191.26 2285.51,2436.16 1939.59,2522.49C1496.94,2384.12 1350.61,2194.32 1095.92,1901.06L1350,1706.98C1481.63,1965.96 1848.98,2142.28 1848.98,2142.9ZM2822.45,1918.81C2687.75,2073.71 2561.63,2213.3 2423.88,2325.96C2284.28,2441.06 2133.06,2527.38 1951.84,2572.69L1924.29,2571.47C1490.82,2436.16 1333.47,2254.32 1096.53,1980.04L1021.22,1893.71L1368.37,1628L1396.53,1683.71C1444.29,1778.61 1527.55,1862.49 1610.82,1929.22C1502.45,1784.12 1440,1681.26 1440,1681.26L1413.06,1636.57L1632.24,1504.32L1645.71,1498.81L1869.8,1438.81L1869.18,1403.92L1933.47,1421.67L1998.37,1403.92L1997.75,1438.81L2221.84,1498.81L2235.31,1504.32L2435.51,1625.55L2447.75,1593.71L2860.41,1875.34L2822.45,1918.81Z"/>
            <path d="M1105.1,1911.47L1095.92,1901.06L1350,1706.98C1351.84,1710.65 1354.29,1714.94 1356.12,1718.61L1356.73,1719.22C1358.57,1722.9 1360.41,1725.96 1362.24,1729.63L1364.08,1732.08L1364.08,1732.69C1365.92,1735.14 1367.14,1738.2 1368.98,1740.65L1368.98,1741.26L1371.43,1745.55L1372.04,1746.16L1372.65,1746.77L1374.49,1749.83L1375.1,1751.06L1375.71,1751.67L1264.29,1817.18C1297.96,1921.87 1340.82,2047.38 1350.61,2056.57L1211.02,1849.02L1105.1,1911.47Z" style="fill:white;"/>
            <path d="M1751.02,2377.38L1750.41,2377.38L1751.02,2377.38ZM2317.96,1614.53L2383.47,1654.32L2382.86,1654.32L2382.86,1654.94L2382.24,1655.55L2382.24,1656.16L2381.63,1656.77L2381.63,1657.38L2381.02,1657.38L2381.02,1658L2380.41,1658.61L2380.41,1659.22L2379.8,1660.45L2379.8,1661.06L2379.18,1661.67L2378.57,1662.28L2377.96,1663.51L2377.96,1664.12L2377.35,1664.73L2376.73,1665.96L2376.12,1667.18L2375.51,1667.79L2374.9,1669.02L2374.28,1670.24L2373.67,1671.47L2373.06,1672.69L2372.45,1673.91L2371.84,1675.14L2371.22,1676.36L2370,1677.59L2369.39,1678.81L2368.78,1680.04L2368.16,1681.26L2366.94,1683.1L2366.33,1684.32L2365.71,1686.16L2365.1,1686.16L2364.49,1687.38L2363.88,1689.22L2362.65,1690.45L2362.04,1692.28L2361.43,1693.51L2360.82,1694.12L2359.59,1695.96L2358.98,1697.18L2357.75,1699.02L2357.14,1700.85L2356.53,1701.47L2355.92,1702.69L2354.69,1704.53L2353.47,1706.37L2352.24,1708.2L2351.63,1709.43L2351.63,1710.04L2350.41,1712.49L2349.18,1714.32L2347.96,1716.16L2346.73,1718.61L2345.51,1720.45L2344.28,1722.28L2343.06,1724.73L2341.84,1726.57L2341.22,1727.79L2340.61,1729.02L2338.77,1731.47C2317.35,1719.22 2302.65,1711.88 2302.65,1711.88C2303.27,1675.75 2308.16,1643.3 2317.96,1614.53ZM2783.27,1885.14C2517.55,2191.26 2285.51,2436.16 1939.59,2522.49L1939.59,2521.87L1938.37,2521.87C1932.24,2520.04 1926.12,2518.2 1920.61,2516.36L1920,2515.75L1918.77,2515.75L1918.16,2515.14L1917.55,2515.14C2098.16,2430.65 2559.18,1882.08 2559.18,1882.08C2545.71,1859.42 2501.02,1826.98 2452.65,1796.36C2430.61,1836.77 2404.9,1881.47 2374.28,1932.28C2286.12,2078.61 2148.98,2183.92 2025.92,2255.55C2028.37,2253.71 2030.82,2251.87 2033.27,2249.43L2038.16,2246.37C2040.61,2243.92 2043.06,2242.08 2045.51,2240.24L2049.18,2237.18C2053.47,2233.51 2057.75,2230.45 2062.04,2226.16L2067.55,2221.87L2074.28,2216.36L2080.41,2210.85C2083.47,2208.4 2086.53,2205.96 2089.59,2202.9L2096.33,2196.77L2103.06,2190.65L2107.35,2186.37C2109.8,2183.92 2112.24,2182.08 2114.69,2179.63C2117.75,2176.57 2120.82,2173.51 2124.49,2170.45L2130.61,2164.32L2135.51,2159.42L2141.63,2153.3L2147.75,2147.18C2151.43,2143.51 2154.49,2140.45 2158.16,2136.77L2162.45,2132.49L2169.18,2125.14L2173.47,2120.24L2179.59,2113.51C2182.65,2110.45 2185.71,2107.38 2188.77,2103.71L2189.39,2103.71L2194.28,2097.59L2200.41,2090.85L2205.92,2084.73L2211.43,2078.61C2214.49,2074.94 2216.94,2071.87 2220,2068.2L2224.9,2062.69L2230.41,2055.96L2235.92,2049.83L2240.2,2043.71C2243.27,2040.65 2245.71,2036.98 2248.77,2033.91L2249.39,2033.3L2254.28,2026.57L2259.8,2019.83L2264.69,2013.71L2265.31,2013.71C2267.75,2010.04 2270.2,2006.98 2273.27,2003.3L2277.55,1997.18L2283.06,1990.45L2287.35,1984.94L2294.69,1975.14L2295.92,1972.69L2297.75,1970.85L2305.1,1960.45L2308.77,1955.55L2314.9,1947.59L2317.96,1942.69C2321.02,1938.41 2323.47,1934.73 2325.92,1931.06L2329.59,1926.77L2335.1,1918.2L2338.16,1913.3L2344.9,1903.51L2349.18,1897.38L2354.69,1889.43L2357.75,1884.53C2360.2,1880.85 2362.04,1877.18 2364.49,1874.12L2365.1,1872.9L2365.71,1872.28C2368.16,1868.61 2370.61,1864.32 2373.06,1860.65L2374.9,1857.59L2381.63,1847.18L2382.86,1844.73L2390.2,1833.1L2392.04,1830.04L2397.55,1820.85L2399.39,1817.79L2406.12,1806.16C2408.57,1801.87 2411.02,1798.2 2412.86,1794.53L2414.08,1792.08L2419.59,1782.9L2421.43,1779.83C2423.27,1776.16 2425.1,1773.1 2426.33,1770.04L2428.77,1766.37L2433.06,1757.79L2434.29,1755.96C2436.12,1752.28 2437.96,1748.61 2439.18,1745.55L2439.8,1744.94L2440.41,1743.71L2444.69,1734.53L2445.92,1732.08L2450.2,1723.51L2450.82,1722.28L2451.43,1721.67C2452.65,1718.61 2453.88,1716.16 2455.1,1713.1L2456.94,1710.04C2458.16,1707.59 2459.39,1705.14 2460,1702.69L2460.61,1701.47C2461.84,1698.41 2463.67,1695.34 2464.9,1692.28L2465.51,1689.83L2468.57,1683.71L2469.18,1681.26C2470.41,1678.2 2471.63,1675.75 2472.86,1673.3L2783.27,1885.14Z" style="fill:white;"/>
            <path d="M2478.37,2074.94C2448.37,2197.38 2395.1,2314.32 2302.65,2421.47C2192.45,2452.69 2082.24,2483.3 1972.04,2513.91C1994.08,2520.04 2447.14,2162.49 2478.37,2074.94Z"/>
            <path d="M1394.69,2082.9C1424.69,2205.34 1477.96,2322.28 1569.8,2430.04C1680,2460.65 1790.82,2491.26 1901.02,2521.87C1878.37,2528 1425.92,2171.06 1394.69,2082.9Z"/>
            <path d="M1350.61,2056.57C1297.35,2022.9 1195.1,1885.14 1158.98,1824.53C1162.04,1767.59 1198.16,1793.91 1237.96,1785.34C1231.22,1795.14 1314.49,2027.79 1350.61,2056.57Z"/>
            <path d="M2545.71,2042.49C2598.98,2008.81 2701.84,1871.67 2737.96,1810.45C2734.9,1753.51 2698.77,1780.45 2658.98,1771.88C2665.1,1781.06 2582.45,2013.71 2545.71,2042.49Z"/>
            <path d="M1607.76,1195.75C1607.76,1286.36 1627.35,1493.3 1664.08,1564.32C1689.8,1613.3 1872.24,1740.04 1921.22,1733.91C1970.2,1740.04 2152.65,1613.3 2178.37,1564.32C2215.71,1493.3 2234.69,1286.36 2234.69,1195.75C2243.88,1095.34 2254.28,989.426 2216.33,937.997C2134.9,829.018 1962.86,839.426 1921.22,843.712C1879.59,839.426 1707.55,829.018 1626.73,937.997C1588.77,989.426 1599.18,1095.34 1607.76,1195.75Z"/>
            <path d="M1575.31,1425.96C1562.45,1342.69 1556.33,1249.63 1556.33,1195.75L1555.71,1193.92C1546.53,1085.55 1536.12,972.895 1585.1,907.384C1635.31,840.038 1710.61,810.037 1779.8,797.793C1840.41,786.773 1895.51,789.222 1921.22,791.671C1947.55,789.222 2002.65,786.773 2063.27,797.793C2132.45,810.037 2207.75,840.038 2257.96,907.384C2306.33,972.895 2296.53,1085.55 2286.73,1193.92L2286.73,1195.75C2286.73,1249.63 2280,1342.69 2267.14,1425.96C2257.35,1490.85 2243.27,1552.08 2224.28,1588.2C2207.14,1621.26 2143.47,1675.75 2079.18,1718C2021.63,1755.96 1959.18,1785.96 1921.22,1785.34C1883.88,1785.96 1821.43,1755.96 1763.27,1718C1699.59,1676.36 1635.92,1621.26 1618.77,1588.2C1599.8,1552.08 1585.1,1490.85 1575.31,1425.96ZM1607.76,1195.75C1607.76,1286.36 1627.35,1493.3 1664.08,1564.32C1689.8,1613.3 1872.24,1740.04 1921.22,1733.91C1970.2,1740.04 2152.65,1613.3 2178.37,1564.32C2215.71,1493.3 2234.69,1286.36 2234.69,1195.75C2243.88,1095.34 2254.28,989.426 2216.33,937.997C2134.9,829.018 1962.86,839.426 1921.22,843.712C1879.59,839.426 1707.55,829.018 1626.73,937.997C1588.77,989.426 1599.18,1095.34 1607.76,1195.75Z"/>
            <path d="M1610.82,1250.24C1537.35,1117.38 1556.94,1298.61 1577.14,1296.77C1565.51,1236.16 1575.92,1219.63 1610.82,1250.24Z"/>
            <path d="M2232.24,1250.24C2305.1,1117.38 2286.12,1298.61 2265.31,1296.77C2277.55,1236.16 2267.14,1219.63 2232.24,1250.24Z"/>
            <path d="M1594.9,1364.73C1669.59,1548.41 1776.12,1345.75 1919.39,1345.75C2063.27,1345.75 2178.37,1545.96 2252.45,1362.28C2193.67,1774.94 2081.02,1762.08 1914.49,1961.06L1912.65,1963.51L1910.2,1961.06C1752.24,1748 1643.88,1764.53 1594.9,1364.73Z" style="fill:white;"/>
            <path d="M1722.24,1457.18C1690.41,1469.43 1661.63,1473.71 1635.31,1460.24C1672.65,1662.28 1731.43,1724.12 1811.63,1807.38C1842.24,1839.83 1876.53,1875.34 1913.27,1923.1C1949.39,1882.69 1981.84,1850.85 2012.45,1822.08C2100.61,1738.2 2166.12,1675.75 2209.59,1459.02C2182.04,1472.49 2151.43,1467.59 2117.75,1454.12C2097.55,1445.55 2077.35,1433.92 2055.31,1422.28C2013.06,1398.41 1966.53,1372.08 1919.39,1372.08C1872.24,1372.08 1826.33,1399.02 1785.31,1423.51C1763.27,1436.36 1742.45,1448.61 1722.24,1457.18ZM1618.77,1354.94C1643.88,1416.16 1671.43,1421.67 1702.65,1408.81C1719.8,1402.08 1738.77,1390.45 1758.98,1378.81C1806.12,1351.26 1858.16,1320.04 1919.39,1320.04C1980,1320.04 2032.65,1350.04 2081.02,1376.98C2101.22,1388 2120.2,1399.02 2137.35,1405.75C2172.24,1420.45 2202.86,1416.16 2228.57,1352.49L2278.16,1365.96C2232.86,1683.1 2156.33,1756.57 2047.96,1859.42C2013.67,1892.49 1975.71,1928.61 1934.69,1977.59L1932.24,1980.04L1912.65,1999.02L1892.45,1980.04L1889.39,1976.36C1847.75,1920.04 1809.18,1879.63 1774.29,1843.51C1675.71,1740.65 1605.92,1667.79 1569.18,1367.79L1618.77,1354.94Z" style="fill-rule:nonzero;"/>
            <path d="M1913.27,1923.1L2045.51,1757.79C1981.84,1775.55 1945.71,1769.43 1945.71,1769.43C1945.71,1769.43 2017.96,1734.53 2067.55,1702.08C2011.84,1702.08 1913.88,1693.51 1834.9,1640.85C1892.45,1678.81 2144.69,1696.57 2131.22,1568.61C2003.88,1620.65 1903.47,1580.24 1903.47,1580.24C1977.55,1585.14 2109.18,1511.67 2109.18,1511.67C2011.84,1491.47 1988.57,1408.2 1910.2,1391.67C1890,1386.77 1872.24,1385.55 1857.55,1385.55C1877.75,1376.98 1898.57,1372.08 1919.39,1372.08C1966.53,1372.08 2013.06,1398.41 2055.31,1422.28C2077.35,1433.92 2097.55,1445.55 2117.75,1454.12C2151.43,1467.59 2182.04,1472.49 2209.59,1459.02C2166.12,1675.75 2100.61,1738.2 2012.45,1822.08C1981.84,1850.85 1949.39,1882.69 1913.27,1923.1Z" style="fill:white;"/>
            <path d="M1689.8,1466.98C1688.57,1476.16 1687.96,1485.96 1687.35,1496.98C1710,1526.36 1739.39,1558.2 1770,1572.9C1747.35,1561.87 1716.73,1549.02 1686.12,1537.38C1686.12,1571.06 1690.41,1605.34 1702.65,1629.83C1737.55,1699.02 1864.29,1760.24 1864.29,1760.24C1864.29,1760.24 1812.86,1760.24 1760.82,1752.9C1706.33,1689.83 1664.08,1616.98 1635.31,1460.24C1652.45,1469.43 1670.2,1470.65 1689.8,1466.98Z" style="fill:white;"/>
            <path d="M1623.67,1446.16C1628.57,1449.83 1651.84,1508.61 1770,1572.9C1770,1572.9 1645.71,1560.04 1623.67,1509.83L1623.67,1446.16Z"/>
            <path d="M1697.14,1662.9C1702.65,1665.34 1736.33,1718.61 1864.29,1760.24C1864.29,1760.24 1740,1770.65 1708.77,1725.34L1697.14,1662.9Z"/>
            <path d="M2217.55,1462.08C2212.65,1465.14 2190,1523.92 2071.22,1588.2C2071.22,1588.2 2195.51,1575.96 2217.55,1525.14L2217.55,1462.08Z"/>
            <path d="M2139.8,1673.3C2134.28,1675.75 2101.22,1729.02 1972.65,1770.65C1972.65,1770.65 2097.55,1781.06 2128.16,1735.14L2139.8,1673.3Z"/>
            <path d="M1825.71,1446.16C1875.92,1404.53 1929.8,1394.12 1990.41,1446.16C1934.69,1430.24 1880.2,1432.69 1825.71,1446.16Z"/>
            <path d="M2284.28,1062.28C2275.71,1061.67 2180.82,993.712 2028.37,1033.51C2028.37,1033.51 2131.84,956.977 2239.59,1012.08L2284.28,1062.28Z"/>
            <path d="M1542.24,1062.28C1550.2,1061.67 1645.71,993.712 1798.16,1033.51C1798.16,1033.51 1694.69,956.977 1586.94,1012.08L1542.24,1062.28Z"/>
            <path d="M1591.22,1204.32C1596.12,1200.65 1618.77,1141.87 1737.55,1077.59C1737.55,1077.59 1613.27,1090.45 1591.22,1141.26L1591.22,1204.32Z"/>
            <path d="M2243.27,1189.02C2238.37,1185.34 2215.71,1126.57 2096.94,1062.28C2096.94,1062.28 2221.22,1075.14 2243.27,1125.34L2243.27,1189.02Z"/>
            <path d="M1683.06,946.568C1683.06,946.568 1704.49,880.446 1846.53,830.241L1693.47,849.834C1693.47,849.834 1676.33,903.1 1683.06,946.568Z"/>
            <path d="M2164.28,946.568C2164.28,946.568 2143.47,880.446 2000.82,830.241L2154.49,849.834C2154.49,849.834 2171.02,903.1 2164.28,946.568Z"/>
            <path d="M2074.9,1336.57L1984.28,1320.04L2142.24,1256.98C2142.24,1256.98 2129.39,1345.75 2074.9,1336.57ZM1912.65,1287.59C1781.63,1291.26 1726.53,1109.43 1610.2,1232.49C1609.59,1233.1 1608.98,1233.71 1608.98,1234.32C1608.98,1238.61 1608.98,1243.51 1609.59,1248.41C1609.59,1249.02 1610.2,1249.63 1610.82,1250.24C1610.2,1250.24 1610.2,1249.63 1609.59,1249.63C1609.59,1255.14 1610.2,1261.87 1610.82,1268C1612.65,1301.06 1616.33,1338.41 1620.61,1375.14C1621.84,1384.32 1623.06,1393.51 1624.29,1402.69C1624.9,1408.2 1626.12,1413.71 1626.73,1419.22C1651.84,1446.16 1680,1445.55 1710.61,1433.3C1731.43,1425.34 1754.08,1411.88 1777.96,1397.79C1788.98,1391.06 1800,1384.32 1812.24,1378.2C1830.61,1368.41 1849.59,1359.22 1869.8,1353.71C1885.71,1348.81 1902.24,1345.75 1919.39,1345.75C2041.22,1345.75 2142.24,1489.63 2215.71,1421.67C2224.9,1363.51 2230.41,1299.83 2233.47,1249.63C2232.86,1249.63 2232.24,1250.24 2232.24,1250.24C2232.86,1249.63 2232.86,1249.02 2233.47,1248.41C2233.47,1241.06 2234.08,1233.71 2234.08,1226.98C2134.9,1086.77 2054.08,1287.59 1912.65,1287.59ZM1732.65,1332.89C1721.02,1327.38 1712.45,1315.75 1705.71,1303.51C1698.37,1288.81 1694.69,1273.51 1692.86,1264.32C1691.63,1259.43 1691.02,1256.98 1691.02,1256.98L1717.35,1267.38L1848.98,1320.04L1758.37,1336.57C1748.57,1338.41 1740,1336.57 1732.65,1332.89Z" style="fill:rgb(11,11,11);"/>
            <path d="M1856.33,1362.89L1698.37,1299.83C1698.37,1299.83 1711.22,1389.22 1765.1,1379.43L1856.33,1362.89Z" style="fill:white;"/>
            <path d="M1991.02,1362.89L2148.98,1299.83C2148.98,1299.83 2136.12,1389.22 2082.24,1379.43L1991.02,1362.89Z" style="fill:white;"/>
            <path d="M1632.24,996.16C1632.24,996.16 1537.96,1546.57 1681.84,1722.28C1825.71,1898 1923.67,1979.42 1923.67,1979.42C1923.67,1979.42 1953.06,2327.18 1894.9,2302.69C1864.29,2108 1473.06,1907.18 1444.29,1654.32C1421.02,1451.06 1408.16,946.568 1632.24,996.16Z"/>
            <path d="M2186.33,996.16C2186.33,996.16 2280.61,1546.57 2136.73,1722.28C1992.86,1898 1906.53,1964.73 1908.37,1965.96C1908.98,1966.57 1912.04,2341.87 1936.53,2294.73C2005.71,2160.65 2322.24,1791.47 2374.28,1654.32C2447.75,1462.69 2411.02,946.568 2186.33,996.16Z"/>
            <path d="M1933.47,621.466C2152.04,677.793 2394.49,1018.81 2388.98,1027.38C2383.47,1035.34 2343.67,1235.55 2419.59,1400.24C2495.51,1564.94 2488.16,1706.98 2426.33,1743.1C2364.49,1779.22 2028.98,2112.9 2028.98,2112.9C2056.53,1996.57 2138.57,1795.14 2257.96,1686.77C2374.9,1579.63 2176.53,1179.22 1922.45,1077.59C1667.14,1193.92 1481.63,1588.2 1589.39,1686.77C1708.77,1795.14 1781.02,1996.57 1807.96,2112.9C1807.96,2112.9 1482.86,1779.22 1421.02,1743.1C1359.18,1706.98 1351.84,1564.94 1427.75,1400.24C1503.67,1235.55 1463.88,1035.34 1458.37,1027.38C1452.86,1018.81 1695.31,677.793 1913.88,621.466C1923.06,619.629 1924.29,618.405 1933.47,621.466Z" style="fill:white;"/>
            <path d="M2049.8,705.344C2008.77,678.405 1967.75,656.976 1927.35,646.568L1924.9,645.957L1923.67,645.957L1920,646.568C1879.59,656.976 1838.57,678.405 1797.55,705.344C1713.67,761.67 1633.47,843.1 1574.69,912.283C1520.2,975.956 1483.47,1020.04 1483.47,1020.65L1482.86,1020.65C1490.2,1046.98 1504.9,1130.85 1497.55,1225.75C1492.65,1285.14 1479.18,1350.04 1451.02,1410.65C1416.12,1486.57 1399.59,1556.98 1398.37,1613.3C1397.75,1667.79 1410.61,1706.98 1433.88,1721.06C1479.8,1747.38 1654.9,1921.87 1755.31,2022.28C1739.39,1975.14 1718.57,1923.1 1692.86,1872.9C1660.41,1809.83 1620.61,1749.22 1572.24,1705.75C1561.22,1695.34 1552.65,1683.1 1545.92,1669.63L1546.53,1669.63C1522.04,1616.36 1531.22,1535.55 1564.29,1449.22C1596.73,1365.34 1651.22,1275.34 1720.41,1199.43C1775.51,1138.81 1841.02,1086.16 1911.43,1054.32L1921.84,1050.04L1931.63,1053.71C2006.94,1083.71 2077.35,1138.2 2136.73,1203.1C2202.24,1275.34 2254.9,1361.06 2286.12,1441.87C2318.57,1525.14 2328.37,1604.73 2306.33,1659.83C2298.98,1677.59 2288.57,1693.51 2275.1,1705.75C2225.51,1751.06 2182.04,1813.51 2147.14,1879.02C2120.82,1927.38 2099.39,1977.59 2082.86,2023.51C2185.71,1922.49 2367.55,1748 2413.47,1721.06C2436.73,1706.98 2449.59,1667.79 2448.98,1613.3C2447.75,1556.98 2431.22,1486.57 2396.33,1410.65C2368.16,1350.04 2354.69,1285.14 2350.41,1225.75C2342.45,1130.24 2357.14,1046.36 2364.49,1020.65L2363.88,1020.65C2363.88,1020.04 2327.14,975.956 2272.65,912.283C2213.88,843.1 2133.67,761.67 2049.8,705.344ZM1942.04,596.976C1987.96,609.222 2033.88,632.487 2078.57,662.487C2167.35,721.262 2250.61,806.976 2311.84,878.609C2377.35,954.527 2416.53,1024.94 2414.08,1033.51C2412.86,1037.18 2412.24,1037.79 2410.41,1041.47C2407.35,1045.75 2393.88,1122.28 2401.84,1221.47C2406.12,1275.34 2417.75,1334.73 2443.47,1389.22C2481.43,1471.87 2499.18,1549.63 2500.41,1612.08C2501.63,1686.16 2479.59,1741.87 2439.8,1765.14C2381.02,1800.04 2047.96,2130.04 2047.35,2131.26L2003.88,2106.77C2019.8,2039.42 2053.47,1944.53 2101.84,1854.53C2139.18,1784.12 2185.71,1716.77 2240.2,1667.18C2248.16,1660.45 2254.28,1651.26 2257.96,1640.85C2275.1,1598 2265.92,1532.49 2237.75,1460.24C2208.98,1385.55 2160,1305.34 2098.16,1238C2046.73,1181.06 1986.73,1133.92 1923.06,1105.75C1863.06,1135.14 1806.73,1181.06 1758.37,1234.32C1693.47,1305.34 1642.65,1389.83 1612.65,1467.59C1583.88,1541.67 1575.31,1608.41 1593.06,1648.2L1593.67,1648.2C1596.73,1655.55 1601.63,1662.28 1607.14,1667.18C1660.41,1715.55 1703.88,1781.06 1738.77,1849.63C1785.92,1940.85 1817.14,2038.2 1833.06,2106.77L1789.59,2130.65C1788.37,2130.04 1466.33,1800.04 1407.55,1765.14C1367.75,1741.87 1345.71,1686.16 1346.94,1612.08C1348.16,1549.63 1365.92,1471.87 1404.49,1389.22C1429.59,1334.73 1441.22,1275.34 1445.51,1221.47C1454.08,1122.28 1440,1045.75 1436.94,1041.47C1435.1,1037.79 1434.49,1037.18 1433.26,1033.51C1430.82,1024.32 1470.61,954.527 1535.51,878.609C1596.73,806.976 1680,721.262 1768.77,662.487C1814.08,631.875 1861.22,608.609 1907.14,596.976L1910.82,595.752C1923.06,592.691 1926.73,592.079 1942.04,596.976Z" style="fill-rule:nonzero;"/>
            <path d="M2082.86,2023.51C2198.57,1826.37 2422.04,1672.08 2425.71,1628.61C2428.77,1584.53 2379.18,1460.24 2346.12,1346.98C2313.06,1233.71 2218.77,1079.43 2218.77,1079.43C2218.77,1079.43 2210.82,1062.89 2125.1,1015.75C2039.39,968.609 1927.96,934.323 1927.96,934.323C2103.67,909.834 2226.73,1005.96 2226.73,1005.96C2210.2,927.588 1929.8,678.405 1929.8,678.405L1833.67,683.304C1862.45,666.773 1891.84,653.915 1920,646.568L1923.67,645.957L1924.9,645.957L1927.35,646.568C1967.75,656.976 2008.77,678.405 2049.8,705.344C2133.67,761.67 2213.88,843.1 2272.65,912.283C2327.14,975.956 2363.88,1020.04 2363.88,1020.65L2364.49,1020.65C2357.14,1046.36 2342.45,1130.24 2350.41,1225.75C2354.69,1285.14 2368.16,1350.04 2396.33,1410.65C2431.22,1486.57 2447.75,1556.98 2448.98,1613.3C2449.59,1667.79 2436.73,1706.98 2413.47,1721.06C2367.55,1748 2185.71,1922.49 2082.86,2023.51Z" style="fill:white;"/>
            <path d="M1593.67,890.241L1509.18,1026.16L1514.69,1087.38C1514.69,1087.38 1618.16,1012.69 1720.41,1015.75L1545.92,1160.85L1496.94,1303.51C1496.94,1303.51 1471.22,1420.45 1437.55,1479.83C1403.88,1539.22 1406.33,1659.83 1421.02,1691.06C1436.33,1722.28 1492.04,1750.45 1511.63,1784.73C1476.73,1753.51 1448.57,1729.63 1433.88,1721.06C1410.61,1706.98 1397.75,1667.79 1398.37,1613.3C1399.59,1556.98 1416.12,1486.57 1451.02,1410.65C1479.18,1350.04 1492.65,1285.14 1497.55,1225.75C1504.9,1130.85 1490.2,1046.98 1482.86,1020.65L1483.47,1020.65C1483.47,1020.04 1520.2,975.956 1574.69,912.283C1580.82,904.936 1586.94,897.589 1593.67,890.241Z" style="fill:white;"/>
            <path d="M1480.41,1316.36C1488.98,1307.79 1512.24,1184.73 1720.41,1015.75C1720.41,1015.75 1481.63,1085.55 1457.14,1192.69L1480.41,1316.36Z"/>
            <path d="M2365.1,1316.36C2356.53,1307.79 2333.27,1184.73 2125.1,1015.75C2125.1,1015.75 2363.88,1085.55 2388.37,1192.69L2365.1,1316.36Z"/>
        </g>
    </g>
</svg>
