<svg version="1.2" xmlns="http://www.w3.org/2000/svg" viewBox="0 0 1789 364" width="1789" height="364"><style>.a{fill:#fff}</style><path fill-rule="evenodd" class="a" d="m45.8 101.2c0-4.9-1.8-9.2-6.1-12.2-3.7-3.7-8-4.9-13.5-4.9h-25.7l1.2-83.3h144.5l125.5 195.9h0.6c-2.4-28.1-3.6-48.4-3-61.2l1.8-134.7h94.9l4.3 362.4h-95.5l-129.8-199.5h-0.6l2.4 199.5h-98.6zm424.9 1.3q1-7.4-5.5-12.9c-3.6-3.7-8.5-5.5-14-5.5h-25.8l1.3-83.3h146.3l1.2 361.3h-106.5zm207.5-1.3c-0.6-4.9-2.4-9.1-6.1-12.2-3.7-3.7-8.6-4.9-13.5-4.9h-26.3l1.9-83.3h143.8l125.5 195.9h1.3c-2.5-28.1-3.7-48.3-3.7-61.2l2.4-134.7h94.9l4.3 362.5h-95.5l-129.8-199.6h-1.2l2.4 199.6h-97.9zm563.9-100.4h101l3.7 295.7c-0.7 45.3-22.1 67.3-64.3 67.3h-124.9c-50.2 0-75.3-22-74.7-66.7l1.2-62.5h99.8l-1.2 46h60.6zm410.2 0l136.5 361.2h-104.7l-23.2-61.2h-131.1l-20.8 61.2h-114.5l131.7-361.2zm-62.5 112l-32.4 109h73.4z"/></svg>